<svg xmlns="http://www.w3.org/2000/svg" version="1.1" xmlns:xlink="http://www.w3.org/1999/xlink" xmlns:svgjs="http://svgjs.dev/svgjs" width="1500" height="1500" viewBox="0 0 1500 1500"><rect width="1500" height="1500" fill="#ffffff"></rect><g transform="matrix(0.6666666666666666,0,0,0.6666666666666666,249.39393939393938,491.0806701868371)"><svg viewBox="0 0 396 205" data-background-color="#c8c8c8" preserveAspectRatio="xMidYMid meet" height="776" width="1500" xmlns="http://www.w3.org/2000/svg" xmlns:xlink="http://www.w3.org/1999/xlink"><g id="tight-bounds" transform="matrix(1,0,0,1,0.2400000000000091,0.10012102776751419)"><svg viewBox="0 0 395.52 204.79975794446497" height="204.79975794446497" width="395.52"><g><svg viewBox="0 0 395.52 204.79975794446497" height="204.79975794446497" width="395.52"><g transform="matrix(1,0,0,1,0,123.63901843017908)"><svg viewBox="0 0 395.52 81.1607395142859" height="81.1607395142859" width="395.52"><g id="textblocktransform"><svg viewBox="0 0 395.52 81.1607395142859" height="81.1607395142859" width="395.52" id="textblock"><g><svg viewBox="0 0 395.52 48.60670471134704" height="48.60670471134704" width="395.52"><g transform="matrix(1,0,0,1,0,0)"><svg width="395.52" viewBox="3.5 -36.55 376.71 46.3" height="48.60670471134704" data-palette-color="#000000"><path d="M23.6-5.15L23.6 0 3.5 0 3.5-33.7 23.4-33.7 23.4-28.55 9.85-28.55 9.85-19.4 21.9-19.4 21.9-14.3 9.85-14.3 9.85-5.15 23.6-5.15ZM51.65-16.85L51.65 0 45.65 0 45.65-15.6Q45.65-18.1 44.45-19.38 43.25-20.65 41.2-20.65L41.2-20.65Q38.85-20.65 37.25-18.82 35.65-17 35.65-13.6L35.65-13.6 35.65 0 29.65 0 29.65-25.35 35.65-25.35 35.65-21Q37.8-25.65 43.45-25.65L43.45-25.65Q47.25-25.65 49.45-23.35 51.65-21.05 51.65-16.85L51.65-16.85ZM80.25-25.35L80.25-2.3Q80.25 3.7 76.77 6.73 73.3 9.75 67.95 9.75L67.95 9.75Q62.95 9.75 59.2 7.95L59.2 7.95 59.2 1.85Q62.6 4.25 67.34 4.25L67.34 4.25Q74.25 4.25 74.25-2.35L74.25-2.35 74.25-4.55Q71.95-0.8 67.05-0.8L67.05-0.8Q62.8-0.8 59.77-3.93 56.75-7.05 56.75-13L56.75-13Q56.75-18.5 59.62-22.08 62.5-25.65 67.2-25.65L67.2-25.65Q71.95-25.65 74.25-21.7L74.25-21.7 74.25-25.35 80.25-25.35ZM63-13L63-13Q63-9.45 64.55-7.58 66.09-5.7 68.5-5.7L68.5-5.7Q70.95-5.7 72.59-7.63 74.25-9.55 74.25-12.65L74.25-12.65Q74.25-16.7 72.65-18.6 71.05-20.5 68.59-20.5L68.59-20.5Q66-20.5 64.5-18.48 63-16.45 63-13ZM92.69-25.35L92.69 0 86.69 0 86.69-25.35 92.69-25.35ZM93.29-32.95L93.29-32.95Q93.29-31.4 92.24-30.35 91.19-29.3 89.69-29.3 88.19-29.3 87.14-30.35 86.09-31.4 86.09-32.95L86.09-32.95Q86.09-34.45 87.14-35.5 88.19-36.55 89.69-36.55 91.19-36.55 92.24-35.5 93.29-34.45 93.29-32.95ZM121.44-16.85L121.44 0 115.44 0 115.44-15.6Q115.44-18.1 114.24-19.38 113.04-20.65 110.99-20.65L110.99-20.65Q108.64-20.65 107.04-18.82 105.44-17 105.44-13.6L105.44-13.6 105.44 0 99.44 0 99.44-25.35 105.44-25.35 105.44-21Q107.59-25.65 113.24-25.65L113.24-25.65Q117.04-25.65 119.24-23.35 121.44-21.05 121.44-16.85L121.44-16.85ZM147.04-6.6L147.04-1.4Q144.39 0.25 139.39 0.25L139.39 0.25Q133.34 0.25 129.84-3.35 126.34-6.95 126.34-12.65L126.34-12.65Q126.34-18.7 129.64-22.15 132.94-25.6 137.89-25.6 142.84-25.6 145.74-22.6 148.64-19.6 148.64-13.85L148.64-13.85Q148.64-12.45 148.29-10.25L148.29-10.25 132.39-10.25Q133.04-7.5 135.11-6.05 137.19-4.6 140.29-4.6L140.29-4.6Q144.29-4.6 147.04-6.6L147.04-6.6ZM138.04-20.9L138.04-20.9Q135.89-20.9 134.31-19.33 132.74-17.75 132.29-14.75L132.29-14.75 142.94-14.75 142.94-15.5Q142.84-17.95 141.61-19.43 140.39-20.9 138.04-20.9ZM173.49-6.6L173.49-1.4Q170.84 0.25 165.84 0.25L165.84 0.25Q159.79 0.25 156.29-3.35 152.79-6.95 152.79-12.65L152.79-12.65Q152.79-18.7 156.09-22.15 159.39-25.6 164.34-25.6 169.29-25.6 172.19-22.6 175.09-19.6 175.09-13.85L175.09-13.85Q175.09-12.45 174.74-10.25L174.74-10.25 158.84-10.25Q159.49-7.5 161.56-6.05 163.64-4.6 166.74-4.6L166.74-4.6Q170.74-4.6 173.49-6.6L173.49-6.6ZM164.49-20.9L164.49-20.9Q162.34-20.9 160.76-19.33 159.19-17.75 158.74-14.75L158.74-14.75 169.39-14.75 169.39-15.5Q169.29-17.95 168.06-19.43 166.84-20.9 164.49-20.9ZM186.58-13.1L186.58 0 180.53 0 180.58-25.35 186.58-25.35 186.58-20.85Q188.33-25.55 192.98-25.55L192.98-25.55Q194.03-25.55 194.68-25.4L194.68-25.4 194.68-19.6Q193.53-20.1 192.13-20.1L192.13-20.1Q189.68-20.1 188.13-18.1 186.58-16.1 186.58-13.1L186.58-13.1ZM214.78-7.3L214.78-7.3Q214.78-3.75 212.23-1.75 209.68 0.25 205.43 0.25L205.43 0.25Q200.73 0.25 197.83-1.3L197.83-1.3 197.83-6.8Q201.18-4.55 205.08-4.55L205.08-4.55Q206.73-4.55 207.66-5.18 208.58-5.8 208.58-6.9L208.58-6.9Q208.58-7.55 208.28-8.08 207.98-8.6 207.13-9.1 206.28-9.6 205.81-9.83 205.33-10.05 203.93-10.65L203.93-10.65Q203.78-10.7 203.71-10.75 203.63-10.8 203.48-10.85 203.33-10.9 203.23-10.95L203.23-10.95Q197.68-13.45 197.68-18.15L197.68-18.15Q197.68-21.65 200.33-23.65 202.98-25.65 206.98-25.65L206.98-25.65Q210.83-25.65 213.38-24.55L213.38-24.55 213.38-19.25Q210.88-20.75 207.13-20.75L207.13-20.75Q205.58-20.75 204.71-20.08 203.83-19.4 203.83-18.35L203.83-18.35Q203.83-17.95 203.96-17.6 204.08-17.25 204.41-16.93 204.73-16.6 205.03-16.35 205.33-16.1 205.88-15.83 206.43-15.55 206.83-15.35 207.23-15.15 207.93-14.85 208.63-14.55 209.03-14.35L209.03-14.35Q211.68-13.05 213.23-11.45 214.78-9.85 214.78-7.3ZM243.23 0L243.23 0 232.23 0 232.23-33.7 243.23-33.7Q250.78-33.7 255.58-29.05 260.38-24.4 260.38-17.3L260.38-17.3Q260.38-9.55 255.73-4.78 251.08 0 243.23 0ZM243.03-28.4L243.03-28.4 238.68-28.4 238.68-5.25 243.13-5.25Q248.43-5.25 251.18-8.53 253.93-11.8 253.93-17.3L253.93-17.3Q253.93-22.15 251-25.28 248.08-28.4 243.03-28.4ZM287.47-25.35L287.47 0 281.42 0 281.42-4.15Q279.42 0.25 273.62 0.25L273.62 0.25Q269.77 0.25 267.62-1.95 265.47-4.15 265.47-8.2L265.47-8.2 265.47-25.35 271.47-25.35 271.47-9.6Q271.47-7.2 272.65-5.95 273.82-4.7 275.87-4.7L275.87-4.7Q278.47-4.7 279.95-6.45 281.42-8.2 281.42-11.75L281.42-11.75 281.42-25.35 287.47-25.35ZM315.97-16.85L315.97 0 309.97 0 309.97-15.6Q309.97-18.1 308.77-19.38 307.57-20.65 305.52-20.65L305.52-20.65Q303.17-20.65 301.57-18.82 299.97-17 299.97-13.6L299.97-13.6 299.97 0 293.97 0 293.97-25.35 299.97-25.35 299.97-21Q302.12-25.65 307.77-25.65L307.77-25.65Q311.57-25.65 313.77-23.35 315.97-21.05 315.97-16.85L315.97-16.85ZM328.47-25.35L328.47 0 322.47 0 322.47-25.35 328.47-25.35ZM329.07-32.95L329.07-32.95Q329.07-31.4 328.02-30.35 326.97-29.3 325.47-29.3 323.97-29.3 322.92-30.35 321.87-31.4 321.87-32.95L321.87-32.95Q321.87-34.45 322.92-35.5 323.97-36.55 325.47-36.55 326.97-36.55 328.02-35.5 329.07-34.45 329.07-32.95ZM357.37-25.35L348.22-0.7Q344.42 9.45 336.62 9.45L336.62 9.45Q335.17 9.45 334.12 9.2L334.12 9.2 334.12 4.25Q334.92 4.45 335.82 4.45L335.82 4.45Q340.37 4.45 342.27-0.5L342.27-0.5 332.27-25.35 338.92-25.35 341.87-17.25Q343.22-13.65 344.04-11.2 344.87-8.75 345.07-8.1L345.07-8.1 345.22-7.4Q345.72-9.15 348.42-17.25L348.42-17.25 351.07-25.35 357.37-25.35ZM369.76-4.25L369.76-4.25Q371.76-4.25 372.89-5.43 374.01-6.6 374.01-8.5L374.01-8.5 374.01-10.9 370.91-10.9Q368.56-10.9 367.31-9.93 366.06-8.95 366.06-7.45L366.06-7.45Q366.06-4.25 369.76-4.25ZM374.26 0L374.26-3.05Q372.51 0.2 367.66 0.2L367.66 0.2Q364.06 0.2 361.94-1.9 359.81-4 359.81-7.2L359.81-7.2Q359.81-10.8 362.51-12.85 365.21-14.9 370.31-14.9L370.31-14.9 374.01-14.9 374.01-16.45Q374.01-18.55 372.91-19.65 371.81-20.75 369.16-20.75L369.16-20.75Q365.11-20.75 361.71-18.5L361.71-18.5 361.71-24.05Q364.56-25.8 369.91-25.8L369.91-25.8Q380.21-25.8 380.21-16.2L380.21-16.2 380.21 0 374.26 0Z" opacity="1" transform="matrix(1,0,0,1,0,0)" fill="#000000" class="wordmark-text-0" data-fill-palette-color="primary" id="text-0"></path></svg></g></svg></g><g transform="matrix(1,0,0,1,49.44,60.08158113278301)"><svg viewBox="0 0 296.64 21.079158381502893" height="21.079158381502893" width="296.64"><g transform="matrix(1,0,0,1,0,0)"><svg width="296.64" viewBox="0.9 -36.55 648.6800000000001 46.1" height="21.079158381502893" data-palette-color="#043f9c"><path d="M18.7-12.5L18.7 0 12.4 0 12.4-12.3 0.9-33.7 8.25-33.7 10.5-28.8Q12.45-24.55 13.7-21.68 14.95-18.8 15.2-18.1L15.2-18.1 15.5-17.35Q15.95-19.2 20.65-28.8L20.65-28.8 22.95-33.7 30.3-33.7 18.7-12.5ZM57.55-12.75L57.55-12.75Q57.55-7 54.32-3.3 51.1 0.4 45.3 0.4L45.3 0.4Q39.55 0.4 36.32-3.2 33.1-6.8 33.1-12.4L33.1-12.4Q33.1-18.2 36.45-21.98 39.8-25.75 45.3-25.75L45.3-25.75Q51.15-25.75 54.35-22.08 57.55-18.4 57.55-12.75ZM39.4-12.6L39.4-12.6Q39.4-9.1 40.95-6.75 42.5-4.4 45.35-4.4L45.35-4.4Q48.3-4.4 49.8-6.7 51.3-9 51.3-12.55L51.3-12.55Q51.3-16.2 49.85-18.53 48.4-20.85 45.3-20.85L45.3-20.85Q42.45-20.85 40.92-18.5 39.4-16.15 39.4-12.6ZM84.45-25.35L84.45 0 78.4 0 78.4-4.15Q76.4 0.25 70.6 0.25L70.6 0.25Q66.75 0.25 64.6-1.95 62.45-4.15 62.45-8.2L62.45-8.2 62.45-25.35 68.45-25.35 68.45-9.6Q68.45-7.2 69.62-5.95 70.8-4.7 72.85-4.7L72.85-4.7Q75.45-4.7 76.92-6.45 78.4-8.2 78.4-11.75L78.4-11.75 78.4-25.35 84.45-25.35ZM96.94-13.1L96.94 0 90.89 0 90.94-25.35 96.94-25.35 96.94-20.85Q98.69-25.55 103.34-25.55L103.34-25.55Q104.39-25.55 105.04-25.4L105.04-25.4 105.04-19.6Q103.89-20.1 102.49-20.1L102.49-20.1Q100.04-20.1 98.49-18.1 96.94-16.1 96.94-13.1L96.94-13.1ZM142.64-16.6L142.64 0 136.64 0 136.64-15.55Q136.64-17.95 135.41-19.3 134.19-20.65 132.24-20.65L132.24-20.65Q130.09-20.65 128.36-19 126.64-17.35 126.64-13.6L126.64-13.6 126.64 0 120.64 0 120.64-35.35 126.64-35.35 126.64-21.05Q128.69-25.65 134.39-25.65L134.39-25.65Q138.09-25.65 140.36-23.33 142.64-21 142.64-16.6L142.64-16.6ZM157.59-4.25L157.59-4.25Q159.59-4.25 160.71-5.43 161.84-6.6 161.84-8.5L161.84-8.5 161.84-10.9 158.74-10.9Q156.39-10.9 155.14-9.93 153.89-8.95 153.89-7.45L153.89-7.45Q153.89-4.25 157.59-4.25ZM162.09 0L162.09-3.05Q160.34 0.2 155.49 0.2L155.49 0.2Q151.89 0.2 149.76-1.9 147.64-4 147.64-7.2L147.64-7.2Q147.64-10.8 150.34-12.85 153.04-14.9 158.14-14.9L158.14-14.9 161.84-14.9 161.84-16.45Q161.84-18.55 160.74-19.65 159.64-20.75 156.99-20.75L156.99-20.75Q152.94-20.75 149.54-18.5L149.54-18.5 149.54-24.05Q152.39-25.8 157.74-25.8L157.74-25.8Q168.04-25.8 168.04-16.2L168.04-16.2 168.04 0 162.09 0ZM180.23-3.8L180.23 9.55 174.23 9.55 174.23-25.35 180.23-25.35 180.23-21.45Q182.93-25.7 187.98-25.7L187.98-25.7Q192.93-25.7 195.86-22.15 198.78-18.6 198.78-12.8L198.78-12.8Q198.78-7.1 195.86-3.38 192.93 0.35 187.93 0.35L187.93 0.35Q182.83 0.35 180.23-3.8L180.23-3.8ZM182.13-18.65Q180.23-16.7 180.23-12.85 180.23-9 182.08-6.9 183.93-4.8 186.53-4.8L186.53-4.8Q189.23-4.8 190.93-6.88 192.63-8.95 192.63-12.7 192.63-16.45 190.93-18.53 189.23-20.6 186.63-20.6 184.03-20.6 182.13-18.65ZM209.93-3.8L209.93 9.55 203.93 9.55 203.93-25.35 209.93-25.35 209.93-21.45Q212.63-25.7 217.68-25.7L217.68-25.7Q222.63-25.7 225.56-22.15 228.48-18.6 228.48-12.8L228.48-12.8Q228.48-7.1 225.56-3.38 222.63 0.35 217.63 0.35L217.63 0.35Q212.53 0.35 209.93-3.8L209.93-3.8ZM211.83-18.65Q209.93-16.7 209.93-12.85 209.93-9 211.78-6.9 213.63-4.8 216.23-4.8L216.23-4.8Q218.93-4.8 220.63-6.88 222.33-8.95 222.33-12.7 222.33-16.45 220.63-18.53 218.93-20.6 216.33-20.6 213.73-20.6 211.83-18.65ZM239.88-25.35L239.88 0 233.88 0 233.88-25.35 239.88-25.35ZM240.48-32.95L240.48-32.95Q240.48-31.4 239.43-30.35 238.38-29.3 236.88-29.3 235.38-29.3 234.33-30.35 233.28-31.4 233.28-32.95L233.28-32.95Q233.28-34.45 234.33-35.5 235.38-36.55 236.88-36.55 238.38-36.55 239.43-35.5 240.48-34.45 240.48-32.95ZM268.63-16.85L268.63 0 262.63 0 262.63-15.6Q262.63-18.1 261.43-19.38 260.23-20.65 258.18-20.65L258.18-20.65Q255.82-20.65 254.22-18.82 252.63-17 252.63-13.6L252.63-13.6 252.63 0 246.63 0 246.63-25.35 252.63-25.35 252.63-21Q254.78-25.65 260.43-25.65L260.43-25.65Q264.23-25.65 266.43-23.35 268.63-21.05 268.63-16.85L268.63-16.85ZM294.22-6.6L294.22-1.4Q291.57 0.25 286.57 0.25L286.57 0.25Q280.52 0.25 277.02-3.35 273.52-6.95 273.52-12.65L273.52-12.65Q273.52-18.7 276.82-22.15 280.12-25.6 285.07-25.6 290.02-25.6 292.92-22.6 295.82-19.6 295.82-13.85L295.82-13.85Q295.82-12.45 295.47-10.25L295.47-10.25 279.57-10.25Q280.22-7.5 282.3-6.05 284.37-4.6 287.47-4.6L287.47-4.6Q291.47-4.6 294.22-6.6L294.22-6.6ZM285.22-20.9L285.22-20.9Q283.07-20.9 281.5-19.33 279.92-17.75 279.47-14.75L279.47-14.75 290.12-14.75 290.12-15.5Q290.02-17.95 288.8-19.43 287.57-20.9 285.22-20.9ZM317.87-7.3L317.87-7.3Q317.87-3.75 315.32-1.75 312.77 0.25 308.52 0.25L308.52 0.25Q303.82 0.25 300.92-1.3L300.92-1.3 300.92-6.8Q304.27-4.55 308.17-4.55L308.17-4.55Q309.82-4.55 310.75-5.18 311.67-5.8 311.67-6.9L311.67-6.9Q311.67-7.55 311.37-8.08 311.07-8.6 310.22-9.1 309.37-9.6 308.89-9.83 308.42-10.05 307.02-10.65L307.02-10.65Q306.87-10.7 306.8-10.75 306.72-10.8 306.57-10.85 306.42-10.9 306.32-10.95L306.32-10.95Q300.77-13.45 300.77-18.15L300.77-18.15Q300.77-21.65 303.42-23.65 306.07-25.65 310.07-25.65L310.07-25.65Q313.92-25.65 316.47-24.55L316.47-24.55 316.47-19.25Q313.97-20.75 310.22-20.75L310.22-20.75Q308.67-20.75 307.8-20.08 306.92-19.4 306.92-18.35L306.92-18.35Q306.92-17.95 307.05-17.6 307.17-17.25 307.5-16.93 307.82-16.6 308.12-16.35 308.42-16.1 308.97-15.83 309.52-15.55 309.92-15.35 310.32-15.15 311.02-14.85 311.72-14.55 312.12-14.35L312.12-14.35Q314.77-13.05 316.32-11.45 317.87-9.85 317.87-7.3ZM339.22-7.3L339.22-7.3Q339.22-3.75 336.67-1.75 334.12 0.25 329.87 0.25L329.87 0.25Q325.17 0.25 322.27-1.3L322.27-1.3 322.27-6.8Q325.62-4.55 329.52-4.55L329.52-4.55Q331.17-4.55 332.09-5.18 333.02-5.8 333.02-6.9L333.02-6.9Q333.02-7.55 332.72-8.08 332.42-8.6 331.57-9.1 330.72-9.6 330.24-9.83 329.77-10.05 328.37-10.65L328.37-10.65Q328.22-10.7 328.14-10.75 328.07-10.8 327.92-10.85 327.77-10.9 327.67-10.95L327.67-10.95Q322.12-13.45 322.12-18.15L322.12-18.15Q322.12-21.65 324.77-23.65 327.42-25.65 331.42-25.65L331.42-25.65Q335.27-25.65 337.82-24.55L337.82-24.55 337.82-19.25Q335.32-20.75 331.57-20.75L331.57-20.75Q330.02-20.75 329.14-20.08 328.27-19.4 328.27-18.35L328.27-18.35Q328.27-17.95 328.39-17.6 328.52-17.25 328.84-16.93 329.17-16.6 329.47-16.35 329.77-16.1 330.32-15.83 330.87-15.55 331.27-15.35 331.67-15.15 332.37-14.85 333.07-14.55 333.47-14.35L333.47-14.35Q336.12-13.05 337.67-11.45 339.22-9.85 339.22-7.3ZM362.31-25.35L362.31 0 356.31 0 356.31-25.35 362.31-25.35ZM362.91-32.95L362.91-32.95Q362.91-31.4 361.86-30.35 360.81-29.3 359.31-29.3 357.81-29.3 356.76-30.35 355.71-31.4 355.71-32.95L355.71-32.95Q355.71-34.45 356.76-35.5 357.81-36.55 359.31-36.55 360.81-36.55 361.86-35.5 362.91-34.45 362.91-32.95ZM385.61-7.3L385.61-7.3Q385.61-3.75 383.06-1.75 380.51 0.25 376.26 0.25L376.26 0.25Q371.56 0.25 368.66-1.3L368.66-1.3 368.66-6.8Q372.01-4.55 375.91-4.55L375.91-4.55Q377.56-4.55 378.49-5.18 379.41-5.8 379.41-6.9L379.41-6.9Q379.41-7.55 379.11-8.08 378.81-8.6 377.96-9.1 377.11-9.6 376.64-9.83 376.16-10.05 374.76-10.65L374.76-10.65Q374.61-10.7 374.54-10.75 374.46-10.8 374.31-10.85 374.16-10.9 374.06-10.95L374.06-10.95Q368.51-13.45 368.51-18.15L368.51-18.15Q368.51-21.65 371.16-23.65 373.81-25.65 377.81-25.65L377.81-25.65Q381.66-25.65 384.21-24.55L384.21-24.55 384.21-19.25Q381.71-20.75 377.96-20.75L377.96-20.75Q376.41-20.75 375.54-20.08 374.66-19.4 374.66-18.35L374.66-18.35Q374.66-17.95 374.79-17.6 374.91-17.25 375.24-16.93 375.56-16.6 375.86-16.35 376.16-16.1 376.71-15.83 377.26-15.55 377.66-15.35 378.06-15.15 378.76-14.85 379.46-14.55 379.86-14.35L379.86-14.35Q382.51-13.05 384.06-11.45 385.61-9.85 385.61-7.3ZM425.56-12.75L425.56-12.75Q425.56-7 422.33-3.3 419.11 0.4 413.31 0.4L413.31 0.4Q407.56 0.4 404.33-3.2 401.11-6.8 401.11-12.4L401.11-12.4Q401.11-18.2 404.46-21.98 407.81-25.75 413.31-25.75L413.31-25.75Q419.16-25.75 422.36-22.08 425.56-18.4 425.56-12.75ZM407.41-12.6L407.41-12.6Q407.41-9.1 408.96-6.75 410.51-4.4 413.36-4.4L413.36-4.4Q416.31-4.4 417.81-6.7 419.31-9 419.31-12.55L419.31-12.55Q419.31-16.2 417.86-18.53 416.41-20.85 413.31-20.85L413.31-20.85Q410.46-20.85 408.93-18.5 407.41-16.15 407.41-12.6ZM452.45-25.35L452.45 0 446.4 0 446.4-4.15Q444.4 0.25 438.6 0.25L438.6 0.25Q434.75 0.25 432.6-1.95 430.45-4.15 430.45-8.2L430.45-8.2 430.45-25.35 436.45-25.35 436.45-9.6Q436.45-7.2 437.63-5.95 438.8-4.7 440.85-4.7L440.85-4.7Q443.45-4.7 444.93-6.45 446.4-8.2 446.4-11.75L446.4-11.75 446.4-25.35 452.45-25.35ZM464.95-13.1L464.95 0 458.9 0 458.95-25.35 464.95-25.35 464.95-20.85Q466.7-25.55 471.35-25.55L471.35-25.55Q472.4-25.55 473.05-25.4L473.05-25.4 473.05-19.6Q471.9-20.1 470.5-20.1L470.5-20.1Q468.05-20.1 466.5-18.1 464.95-16.1 464.95-13.1L464.95-13.1ZM505.2-7.3L505.2-7.3Q505.2-3.75 502.65-1.75 500.1 0.25 495.85 0.25L495.85 0.25Q491.15 0.25 488.25-1.3L488.25-1.3 488.25-6.8Q491.6-4.55 495.5-4.55L495.5-4.55Q497.15-4.55 498.07-5.18 499-5.8 499-6.9L499-6.9Q499-7.55 498.7-8.08 498.4-8.6 497.55-9.1 496.7-9.6 496.22-9.83 495.75-10.05 494.35-10.65L494.35-10.65Q494.2-10.7 494.12-10.75 494.05-10.8 493.9-10.85 493.75-10.9 493.65-10.95L493.65-10.95Q488.1-13.45 488.1-18.15L488.1-18.15Q488.1-21.65 490.75-23.65 493.4-25.65 497.4-25.65L497.4-25.65Q501.25-25.65 503.8-24.55L503.8-24.55 503.8-19.25Q501.3-20.75 497.55-20.75L497.55-20.75Q496-20.75 495.12-20.08 494.25-19.4 494.25-18.35L494.25-18.35Q494.25-17.95 494.37-17.6 494.5-17.25 494.82-16.93 495.15-16.6 495.45-16.35 495.75-16.1 496.3-15.83 496.85-15.55 497.25-15.35 497.65-15.15 498.35-14.85 499.05-14.55 499.45-14.35L499.45-14.35Q502.1-13.05 503.65-11.45 505.2-9.85 505.2-7.3ZM531.74-25.35L531.74 0 525.69 0 525.69-4.15Q523.69 0.25 517.89 0.25L517.89 0.25Q514.04 0.25 511.89-1.95 509.74-4.15 509.74-8.2L509.74-8.2 509.74-25.35 515.74-25.35 515.74-9.6Q515.74-7.2 516.92-5.95 518.09-4.7 520.14-4.7L520.14-4.7Q522.74-4.7 524.22-6.45 525.69-8.2 525.69-11.75L525.69-11.75 525.69-25.35 531.74-25.35ZM556.59-6.3L556.59-1.1Q553.94 0.45 549.99 0.45L549.99 0.45Q544.14 0.45 540.51-3.25 536.89-6.95 536.89-12.6L536.89-12.6Q536.94-18.15 540.51-21.95 544.09-25.75 550.29-25.75L550.29-25.75Q553.99-25.75 556.59-24.35L556.59-24.35 556.59-19.05Q554.09-20.65 550.89-20.65L550.89-20.65Q547.39-20.65 545.24-18.45 543.09-16.25 543.04-12.6L543.04-12.6Q543.14-9 545.22-6.8 547.29-4.6 550.84-4.6L550.84-4.6Q553.94-4.6 556.59-6.3L556.59-6.3ZM580.09-6.3L580.09-1.1Q577.44 0.45 573.49 0.45L573.49 0.45Q567.64 0.45 564.01-3.25 560.39-6.95 560.39-12.6L560.39-12.6Q560.44-18.15 564.01-21.95 567.59-25.75 573.79-25.75L573.79-25.75Q577.49-25.75 580.09-24.35L580.09-24.35 580.09-19.05Q577.59-20.65 574.39-20.65L574.39-20.65Q570.89-20.65 568.74-18.45 566.59-16.25 566.54-12.6L566.54-12.6Q566.64-9 568.71-6.8 570.79-4.6 574.34-4.6L574.34-4.6Q577.44-4.6 580.09-6.3L580.09-6.3ZM604.58-6.6L604.58-1.4Q601.93 0.25 596.93 0.25L596.93 0.25Q590.88 0.25 587.38-3.35 583.88-6.95 583.88-12.65L583.88-12.65Q583.88-18.7 587.18-22.15 590.48-25.6 595.43-25.6 600.38-25.6 603.28-22.6 606.18-19.6 606.18-13.85L606.18-13.85Q606.18-12.45 605.83-10.25L605.83-10.25 589.93-10.25Q590.58-7.5 592.66-6.05 594.73-4.6 597.83-4.6L597.83-4.6Q601.83-4.6 604.58-6.6L604.58-6.6ZM595.58-20.9L595.58-20.9Q593.43-20.9 591.86-19.33 590.28-17.75 589.83-14.75L589.83-14.75 600.48-14.75 600.48-15.5Q600.38-17.95 599.16-19.43 597.93-20.9 595.58-20.9ZM628.23-7.3L628.23-7.3Q628.23-3.75 625.68-1.75 623.13 0.25 618.88 0.25L618.88 0.25Q614.18 0.25 611.28-1.3L611.28-1.3 611.28-6.8Q614.63-4.55 618.53-4.55L618.53-4.55Q620.18-4.55 621.11-5.18 622.03-5.8 622.03-6.9L622.03-6.9Q622.03-7.55 621.73-8.08 621.43-8.6 620.58-9.1 619.73-9.6 619.26-9.83 618.78-10.05 617.38-10.65L617.38-10.65Q617.23-10.7 617.16-10.75 617.08-10.8 616.93-10.85 616.78-10.9 616.68-10.95L616.68-10.95Q611.13-13.45 611.13-18.15L611.13-18.15Q611.13-21.65 613.78-23.65 616.43-25.65 620.43-25.65L620.43-25.65Q624.28-25.65 626.83-24.55L626.83-24.55 626.83-19.25Q624.33-20.75 620.58-20.75L620.58-20.75Q619.03-20.75 618.16-20.08 617.28-19.4 617.28-18.35L617.28-18.35Q617.28-17.95 617.41-17.6 617.53-17.25 617.86-16.93 618.18-16.6 618.48-16.35 618.78-16.1 619.33-15.83 619.88-15.55 620.28-15.35 620.68-15.15 621.38-14.85 622.08-14.55 622.48-14.35L622.48-14.35Q625.13-13.05 626.68-11.45 628.23-9.85 628.23-7.3ZM649.58-7.3L649.58-7.3Q649.58-3.75 647.03-1.75 644.48 0.25 640.23 0.25L640.23 0.25Q635.53 0.25 632.63-1.3L632.63-1.3 632.63-6.8Q635.98-4.55 639.88-4.55L639.88-4.55Q641.53-4.55 642.45-5.18 643.38-5.8 643.38-6.9L643.38-6.9Q643.38-7.55 643.08-8.08 642.78-8.6 641.93-9.1 641.08-9.6 640.6-9.83 640.13-10.05 638.73-10.65L638.73-10.65Q638.58-10.7 638.5-10.75 638.43-10.8 638.28-10.85 638.13-10.9 638.03-10.95L638.03-10.95Q632.48-13.45 632.48-18.15L632.48-18.15Q632.48-21.65 635.13-23.65 637.78-25.65 641.78-25.65L641.78-25.65Q645.63-25.65 648.18-24.55L648.18-24.55 648.18-19.25Q645.68-20.75 641.93-20.75L641.93-20.75Q640.38-20.75 639.5-20.08 638.63-19.4 638.63-18.35L638.63-18.35Q638.63-17.95 638.75-17.6 638.88-17.25 639.2-16.93 639.53-16.6 639.83-16.35 640.13-16.1 640.68-15.83 641.23-15.55 641.63-15.35 642.03-15.15 642.73-14.85 643.43-14.55 643.83-14.35L643.83-14.35Q646.48-13.05 648.03-11.45 649.58-9.85 649.58-7.3Z" opacity="1" transform="matrix(1,0,0,1,0,0)" fill="#000000" class="slogan-text-1" data-fill-palette-color="secondary" id="text-1"></path></svg></g></svg></g></svg></g></svg></g><g transform="matrix(1,0,0,1,141.67792899562843,0)"><svg viewBox="0 0 112.16414200874311 112.16414200874311" height="112.16414200874311" width="112.16414200874311"><g><svg></svg></g><g id="icon-0"><svg viewBox="0 0 112.16414200874311 112.16414200874311" height="112.16414200874311" width="112.16414200874311"><g><path transform="scale(1.12164,1.12164)" d="M30 100c-16.569 0-30-13.431-30-30v-40c0-16.569 13.431-30 30-30h40c16.569 0 30 13.431 30 30v40c0 16.569-13.431 30-30 30z" fill="#000000" fill-rule="nonzero" stroke="none" stroke-width="1" stroke-linecap="butt" stroke-linejoin="miter" stroke-miterlimit="10" stroke-dasharray="" stroke-dashoffset="0" font-family="none" font-weight="none" font-size="none" text-anchor="none" style="mix-blend-mode: normal" data-fill-palette-color="accent"></path></g><g transform="matrix(1,0,0,1,22.432828401748623,23.672035636406115)"><svg viewBox="0 0 67.29848520524587 64.82007073593088" height="64.82007073593088" width="67.29848520524587"><g><svg xmlns="http://www.w3.org/2000/svg" xmlns:xlink="http://www.w3.org/1999/xlink" version="1.1" x="0" y="0" viewBox="0.7 2 70.6 68.00000000000001" enable-background="new 0 0 72 72" xml:space="preserve" height="64.82007073593088" width="67.29848520524587" class="icon-cg-0" data-fill-palette-color="quaternary" id="cg-0"><g fill="#c8c8c8" data-fill-palette-color="quaternary"><g fill="#c8c8c8" data-fill-palette-color="quaternary"><g fill="#c8c8c8" data-fill-palette-color="quaternary"><g fill="#c8c8c8" data-fill-palette-color="quaternary"><path d="M49.7 41.2c-0.7 0-1.4-0.3-1.8-0.8-0.8-1-0.7-2.5 0.2-3.4l5.7-5.7c0.5-0.5 0.5-1.3 0-1.8l-5.7-5.7c-0.9-0.9-1.1-2.3-0.3-3.3 0.9-1.1 2.6-1.2 3.6-0.2l8.5 8.5c0.5 0.5 0.7 1.1 0.7 1.7 0 0.6-0.3 1.3-0.7 1.7l-8.5 8.5C51 41 50.3 41.2 49.7 41.2z" fill="#ffffff" data-fill-palette-color="quaternary"></path></g><g fill="#c8c8c8" data-fill-palette-color="quaternary"><path d="M22.3 41.2c-0.6 0-1.2-0.2-1.7-0.7L12.1 32c-0.5-0.5-0.7-1.1-0.7-1.7 0-0.6 0.3-1.3 0.7-1.7l8.4-8.4c0.9-0.9 2.4-1.1 3.3-0.3 1.1 0.9 1.2 2.6 0.2 3.6l-5.8 5.8c-0.5 0.5-0.5 1.3 0 1.8l5.7 5.7c0.9 0.9 1.1 2.4 0.2 3.4C23.6 40.9 22.9 41.2 22.3 41.2z" fill="#ffffff" data-fill-palette-color="quaternary"></path></g></g><g fill="#c8c8c8" data-fill-palette-color="quaternary"><path d="M30.9 47c-0.3 0-0.5 0-0.8-0.1-1.3-0.4-1.9-1.8-1.5-3.1l10.2-28.5c0.4-1.3 1.8-1.9 3.1-1.5 1.3 0.4 1.9 1.8 1.5 3.1L33.2 45.4C32.8 46.4 31.9 47 30.9 47z" fill="#ffffff" data-fill-palette-color="quaternary"></path></g></g><path d="M63.7 2H8.3C4.1 2 0.7 5.4 0.7 9.6v39.8c0 4.2 3.4 7.6 7.6 7.6h22c0.4 0 0.7 0.3 0.7 0.7v3.6c0 0.3-0.2 0.6-0.6 0.7-4.5 0.7-7.7 2.1-7.7 3.8 0 2.3 6 4.2 13.3 4.2s13.3-1.9 13.3-4.2c0-1.7-3.2-3.2-7.7-3.8-0.3 0-0.6-0.3-0.6-0.7v-3.6c0-0.4 0.3-0.7 0.7-0.7h22c4.2 0 7.6-3.4 7.6-7.6V9.6C71.3 5.4 67.9 2 63.7 2zM66.4 49.4c0 1.5-1.2 2.7-2.7 2.7H8.3c-1.5 0-2.7-1.2-2.7-2.7V9.6c0-1.5 1.2-2.7 2.7-2.7h55.4c1.5 0 2.7 1.2 2.7 2.7V49.4z" fill="#ffffff" data-fill-palette-color="quaternary"></path></g></svg></g></svg></g></svg></g></svg></g><g></g></svg></g><defs></defs></svg><rect width="395.52" height="204.79975794446497" fill="none" stroke="none" visibility="hidden"></rect></g></svg></g></svg>